<svg xmlns="http://www.w3.org/2000/svg" viewBox="0 0 382.4 470.46"><path d="M307.93,454.67c-56.7,22.91-125.12-25.07-152.2-92.15a182.43,182.43,0,0,1-6.88-20.9c-.4-1.49-.79-3-1.17-4.52-18.1-73.1-11.63-190.63,38.72-211,23.19-9.36,52.1,3.34,80,26.22q5.25,4.31,10.44,9.05c36.46,33.37,69.74,81.9,84.37,118.14C388.33,346.63,364.69,431.75,307.93,454.67Z" transform="translate(-0.04 0)" style="fill:none;stroke:#000;stroke-miterlimit:10;stroke-width:20px"/><path d="M266.44,152.36c-27.94-22.88-56.85-35.58-80-26.22-50.35,20.33-56.82,137.86-38.72,211a145.79,145.79,0,0,1-22.17,7.53c-17.46,4.31-36.93,5.08-55.51-3-51-22.1-66.23-73.5-57.82-138.79,6.24-48.45,29-81.73,46.26-104.09C86.86,61.92,177.87-2.12,223.23,12c17.91,5.58,30.53,28.67,37.52,61.84a312.18,312.18,0,0,1,5.88,48.07A269,269,0,0,1,266.44,152.36Z" transform="translate(-0.04 0)" style="fill:none;stroke:#000;stroke-miterlimit:10;stroke-width:20px"/></svg>