<svg xmlns="http://www.w3.org/2000/svg" viewBox="0 0 382.45 470.46"><path d="M373.7,476.25C317,499.16,248.58,451.18,221.5,384.1a183,183,0,0,1-6.88-20.9c-.4-1.49-.79-3-1.17-4.52-18.1-73.1-11.63-190.63,38.72-211,23.19-9.36,52.1,3.34,80,26.22q5.25,4.31,10.44,9.05c36.46,33.37,69.74,81.9,84.37,118.14C454.1,368.21,430.46,453.33,373.7,476.25Z" transform="translate(-65.77 -21.58)" style="fill:none;stroke:#fff;stroke-miterlimit:10;stroke-width:20px"/><path d="M332.21,173.94c-27.94-22.88-56.85-35.58-80-26.22-50.35,20.33-56.82,137.86-38.72,211a145.24,145.24,0,0,1-22.17,7.53c-17.46,4.31-36.93,5.08-55.51-3-51-22.1-66.23-73.5-57.82-138.79,6.24-48.45,29-81.73,46.26-104.09C152.63,83.5,243.64,19.46,289,33.58c17.91,5.58,30.53,28.67,37.52,61.84a312.66,312.66,0,0,1,5.88,48.07A269.84,269.84,0,0,1,332.21,173.94Z" transform="translate(-65.77 -21.58)" style="fill:none;stroke:#fff;stroke-miterlimit:10;stroke-width:20px"/><path d="M214.62,363.2a76.63,76.63,0,0,1-23.34,3,145.24,145.24,0,0,0,22.17-7.53C213.83,360.21,214.22,361.71,214.62,363.2Z" transform="translate(-65.77 -21.58)" style="fill:none;stroke:#fff;stroke-miterlimit:10;stroke-width:20px"/></svg>