<svg xmlns="http://www.w3.org/2000/svg" viewBox="0 0 174.81 27.36"><path d="M19.78,27.66c-3.2,1.29-7-1.41-8.57-5.18-.14-.36-.27-.76-.39-1.18L10.76,21c-1-4.11-.66-10.73,2.18-11.87,1.3-.53,2.93.19,4.5,1.47l.59.51a20.5,20.5,0,0,1,4.75,6.65C24.31,21.58,23,26.37,19.78,27.66Z" transform="translate(-2.01 -1.63)" style="fill:none;stroke:#fff;stroke-miterlimit:10;stroke-width:2px"/><path d="M17.44,10.64c-1.57-1.28-3.2-2-4.5-1.47C10.1,10.31,9.74,16.93,10.76,21a7.65,7.65,0,0,1-1.25.43,4.87,4.87,0,0,1-3.12-.17c-2.88-1.24-3.73-4.14-3.26-7.81A11.73,11.73,0,0,1,5.74,7.63C7.33,5.55,12.46,2,15,2.74c1,.32,1.72,1.62,2.11,3.48a17.78,17.78,0,0,1,.33,2.71A14,14,0,0,1,17.44,10.64Z" transform="translate(-2.01 -1.63)" style="fill:none;stroke:#fff;stroke-miterlimit:10;stroke-width:2px"/><path d="M54.52,18.61h2.06c1.18,0,1.77.41,1.77,1.21a1.64,1.64,0,0,1-.62,1.35,2.76,2.76,0,0,1-1.73.48H53.58a3.23,3.23,0,0,1-2-.56,1.86,1.86,0,0,1-.72-1.58,5.68,5.68,0,0,1,.53-1.93l3.27-7.64-2.45,2.63a2.39,2.39,0,0,1-1.67.95c-.68,0-1.13-.47-1.33-1.41l-.36-1.57-3.09,7.64a46.21,46.21,0,0,1-2.44,5.35A8.76,8.76,0,0,1,41.12,26a7,7,0,0,1-4.43,1.5,5.82,5.82,0,0,1-4.33-1.68,6,6,0,0,1-1.67-4.39,8.68,8.68,0,0,1,2.62-6.23,10.53,10.53,0,0,1,3.52-2.32A10.64,10.64,0,0,1,41,12a2.77,2.77,0,0,1,1.66.44,1.37,1.37,0,0,1,.62,1.18,1.49,1.49,0,0,1-.66,1.26,3.28,3.28,0,0,1-1.47.38,9.67,9.67,0,0,0-4.07,1.15,5.89,5.89,0,0,0-2,2A4.91,4.91,0,0,0,34.26,21,3.3,3.3,0,0,0,35,23.3a2.54,2.54,0,0,0,2,.84,3.44,3.44,0,0,0,2.67-1.32,17.48,17.48,0,0,0,2.49-4.64l5-12.4c.44-1.09,1-1.64,1.78-1.64a1.4,1.4,0,0,1,1.12.46,3.87,3.87,0,0,1,.72,1.6l.78,2.92,3.81-3.75a3.52,3.52,0,0,1,2.34-1.23,1.87,1.87,0,0,1,1.29.46,1.46,1.46,0,0,1,.53,1.13,2.5,2.5,0,0,1-.2.91l-.3.71Z" transform="translate(-2.01 -1.63)" style="fill:#fff"/><path d="M65.62,11.76a4.13,4.13,0,0,1,3,1.17,4,4,0,0,1,1.18,3,6.25,6.25,0,0,1-.62,2.69,5.73,5.73,0,0,1-1.61,2.14,3.82,3.82,0,0,1-1.36.72,7.76,7.76,0,0,1-2,.2,5.37,5.37,0,0,1-2.79-.5,3.9,3.9,0,0,1-1.7-3.45,5.76,5.76,0,0,1,1.74-4.18A5.6,5.6,0,0,1,65.62,11.76Zm-.31,2.7a2.23,2.23,0,0,0-1.71.93,3.09,3.09,0,0,0-.77,2c0,1,.55,1.48,1.65,1.48a1.84,1.84,0,0,0,1.48-.6,3.27,3.27,0,0,0,.87-2.24,1.6,1.6,0,0,0-.42-1.16A1.44,1.44,0,0,0,65.31,14.46Z" transform="translate(-2.01 -1.63)" style="fill:#fff"/><path d="M79.91,18.88h1.53c1.07,0,1.61.38,1.61,1.13a1.43,1.43,0,0,1-.57,1.21,2.62,2.62,0,0,1-1.58.43H78.25a1.91,1.91,0,0,1-1.3-.47A1.54,1.54,0,0,1,76.42,20a3.83,3.83,0,0,1,.36-1.3l1.12-2.77a2.5,2.5,0,0,0,.19-.69.64.64,0,0,0-.25-.52,1,1,0,0,0-.67-.22c-.87,0-1.57.66-2.11,2l-1.49,3.68q-.67,1.68-2,1.68a1.45,1.45,0,0,1-.93-.33,1.06,1.06,0,0,1-.38-.82,2.28,2.28,0,0,1,.21-.85l.14-.34,2.56-6.32a1.72,1.72,0,0,1,1.69-1.23,1.44,1.44,0,0,1,1.4.86,4.25,4.25,0,0,1,2.59-1,2.87,2.87,0,0,1,2,.68,2.22,2.22,0,0,1,.78,1.74,3.57,3.57,0,0,1-.28,1.28Z" transform="translate(-2.01 -1.63)" style="fill:#fff"/><path d="M96.47,13a11.66,11.66,0,0,0-1.71,5.65,3.54,3.54,0,0,0,.84,2.65,4,4,0,0,0,2.81.8h7.06c1.17,0,1.75.4,1.75,1.19a1.61,1.61,0,0,1-.61,1.35,2.71,2.71,0,0,1-1.74.49H97.51a7.32,7.32,0,0,1-3-.5,5.49,5.49,0,0,1-2.41-2.19A6.54,6.54,0,0,1,91.28,19,15.44,15.44,0,0,1,92.83,13h-1c-.94,0-1.42-.41-1.42-1.22A1.67,1.67,0,0,1,91,10.47a2,2,0,0,1,1.42-.53h2.18a16.77,16.77,0,0,1,3.07-3.67,7.84,7.84,0,0,1,5.32-2.22,4.36,4.36,0,0,1,3.11,1.16,3.83,3.83,0,0,1,1.24,2.94,4.29,4.29,0,0,1-2.38,3.91,10.82,10.82,0,0,1-5.13.92Zm1.89-3h2.46c2.11,0,3.16-.56,3.16-1.69a1.07,1.07,0,0,0-.41-.87,1.6,1.6,0,0,0-1-.33,3.75,3.75,0,0,0-2.11.78A8.46,8.46,0,0,0,98.36,9.94Z" transform="translate(-2.01 -1.63)" style="fill:#fff"/><path d="M111.11,12.48a4.94,4.94,0,0,1,2.19-.72,2.89,2.89,0,0,1,2,.68,2.19,2.19,0,0,1,.78,1.73,3.74,3.74,0,0,1-.3,1.38l-1.33,3.33h1.46c1.06,0,1.59.38,1.59,1.13a1.42,1.42,0,0,1-.56,1.21,2.6,2.6,0,0,1-1.58.43h-2.55a2.07,2.07,0,0,1-1.37-.47,1.4,1.4,0,0,1-.55-1.13,3.3,3.3,0,0,1,.29-1.17L112.35,16a2.64,2.64,0,0,0,.22-.82c0-.49-.32-.73-1-.73-.86,0-1.59.74-2.18,2.21L108,20.16c-.45,1.11-1.12,1.67-2,1.67a1.36,1.36,0,0,1-.89-.33,1.05,1.05,0,0,1-.36-.8,2.27,2.27,0,0,1,.19-.84l.14-.35L110.6,5.89c.48-1.17,1.14-1.75,2-1.75a1.26,1.26,0,0,1,.89.35,1.1,1.1,0,0,1,.38.84,3.55,3.55,0,0,1-.33,1.21Z" transform="translate(-2.01 -1.63)" style="fill:#fff"/><path d="M123.87,11.76a4.12,4.12,0,0,1,3,1.17,3.93,3.93,0,0,1,1.19,3,6.39,6.39,0,0,1-.62,2.69,5.84,5.84,0,0,1-1.61,2.14,3.86,3.86,0,0,1-1.37.72,7.73,7.73,0,0,1-2,.2,5.44,5.44,0,0,1-2.8-.5A3.93,3.93,0,0,1,118,17.7a5.76,5.76,0,0,1,1.74-4.18A5.61,5.61,0,0,1,123.87,11.76Zm-.31,2.7a2.22,2.22,0,0,0-1.71.93,3.11,3.11,0,0,0-.78,2c0,1,.55,1.48,1.65,1.48a1.86,1.86,0,0,0,1.49-.6,3.31,3.31,0,0,0,.86-2.24,1.6,1.6,0,0,0-.42-1.16A1.42,1.42,0,0,0,123.56,14.46Z" transform="translate(-2.01 -1.63)" style="fill:#fff"/><path d="M136,21.65h-3.68a3.31,3.31,0,0,1-2.59-1.12,4.19,4.19,0,0,1-1-2.89,5.84,5.84,0,0,1,1.63-4.13,5.12,5.12,0,0,1,3.85-1.75,3.53,3.53,0,0,1,2.44.84,2.79,2.79,0,0,1,.94,2.18,2.44,2.44,0,0,1-.47,1.54,1.48,1.48,0,0,1-1.21.6c-.78,0-1.17-.36-1.17-1.09v-.28a2.46,2.46,0,0,0,0-.26.78.78,0,0,0-.88-.89,1.91,1.91,0,0,0-1.5.87,3.1,3.1,0,0,0-.68,2,1.43,1.43,0,0,0,.55,1.28,3.57,3.57,0,0,0,1.87.37h2.4c1.08,0,1.61.38,1.61,1.13a1.43,1.43,0,0,1-.57,1.2A2.57,2.57,0,0,1,136,21.65Z" transform="translate(-2.01 -1.63)" style="fill:#fff"/><path d="M144.52,11.76a4.13,4.13,0,0,1,3,1.17,4,4,0,0,1,1.19,3,6.26,6.26,0,0,1-.63,2.69,5.73,5.73,0,0,1-1.61,2.14,3.82,3.82,0,0,1-1.36.72,7.76,7.76,0,0,1-2,.2,5.37,5.37,0,0,1-2.79-.5,3.93,3.93,0,0,1-1.7-3.45,5.76,5.76,0,0,1,1.74-4.18A5.6,5.6,0,0,1,144.52,11.76Zm-.3,2.7a2.23,2.23,0,0,0-1.72.93,3.15,3.15,0,0,0-.77,2c0,1,.55,1.48,1.65,1.48a1.84,1.84,0,0,0,1.48-.6,3.27,3.27,0,0,0,.87-2.24,1.6,1.6,0,0,0-.42-1.16A1.43,1.43,0,0,0,144.22,14.46Z" transform="translate(-2.01 -1.63)" style="fill:#fff"/><path d="M152.81,18.88h1.33c1.08,0,1.62.38,1.62,1.13a1.43,1.43,0,0,1-.57,1.21,2.6,2.6,0,0,1-1.58.43h-2.28a2.27,2.27,0,0,1-1.49-.45,1.46,1.46,0,0,1-.55-1.19,4.35,4.35,0,0,1,.37-1.31l5.13-12.62.14-.34a2,2,0,0,1,1.87-1.42,1.31,1.31,0,0,1,.91.35,1.17,1.17,0,0,1,.37.85,2.32,2.32,0,0,1-.19.87l-.14.34Z" transform="translate(-2.01 -1.63)" style="fill:#fff"/><path d="M165,18.88h1.39c1.07,0,1.6.37,1.6,1.12a1.44,1.44,0,0,1-.57,1.21,2.55,2.55,0,0,1-1.57.44h-1.63a1.48,1.48,0,0,1-1.48-.85,2.87,2.87,0,0,1-1.85.85h-1.44a2.84,2.84,0,0,1-2.26-1,3.85,3.85,0,0,1-.85-2.61A6.45,6.45,0,0,1,158,13.68a5,5,0,0,1,3.8-1.92,2.64,2.64,0,0,1,2.38,1.13,1.9,1.9,0,0,1,1.66-1,1.28,1.28,0,0,1,.93.35,1.17,1.17,0,0,1,.38.88A2.28,2.28,0,0,1,167,14l-.14.34Zm-4.61.06h.31a1.34,1.34,0,0,0,1.39-.85L163,15.9a2.15,2.15,0,0,0,.17-.73.73.73,0,0,0-.33-.59,1.31,1.31,0,0,0-.81-.26,2.39,2.39,0,0,0-1.8,1.08,3.56,3.56,0,0,0-.88,2.24C159.32,18.51,159.67,18.94,160.38,18.94Z" transform="translate(-2.01 -1.63)" style="fill:#fff"/><path d="M174.81,11.94h.4c1.07,0,1.61.37,1.61,1.13a1.43,1.43,0,0,1-.57,1.2,2.56,2.56,0,0,1-1.58.43h-.92L172,18.88h1.43c1.07,0,1.61.38,1.61,1.13a1.43,1.43,0,0,1-.57,1.21,2.58,2.58,0,0,1-1.58.43h-2.27a2.4,2.4,0,0,1-1.53-.45,1.43,1.43,0,0,1-.56-1.2,2.82,2.82,0,0,1,.22-1l.25-.56,1.49-3.7h-.19c-.94,0-1.42-.37-1.42-1.1a1.47,1.47,0,0,1,.57-1.23,2.52,2.52,0,0,1,1.58-.43h.58l.67-1.67.14-.34a2,2,0,0,1,1.88-1.41,1.29,1.29,0,0,1,.9.35,1.09,1.09,0,0,1,.37.84,3.1,3.1,0,0,1-.33,1.22Z" transform="translate(-2.01 -1.63)" style="fill:#fff"/></svg>